<svg width="185" height="63" viewBox="0 0 185 63" fill="none" xmlns="http://www.w3.org/2000/svg">
<path d="M16.0235 60L19.8275 51.6H21.0155L24.8315 60H23.5715L20.1755 52.272H20.6555L17.2595 60H16.0235ZM17.6435 57.9L17.9675 56.94H22.6955L23.0435 57.9H17.6435ZM35.6846 60V51.6H39.2246C40.1206 51.6 40.9086 51.776 41.5886 52.128C42.2766 52.48 42.8086 52.972 43.1846 53.604C43.5686 54.236 43.7606 54.968 43.7606 55.8C43.7606 56.632 43.5686 57.364 43.1846 57.996C42.8086 58.628 42.2766 59.12 41.5886 59.472C40.9086 59.824 40.1206 60 39.2246 60H35.6846ZM36.8846 58.956H39.1526C39.8486 58.956 40.4486 58.824 40.9526 58.56C41.4646 58.296 41.8606 57.928 42.1406 57.456C42.4206 56.976 42.5606 56.424 42.5606 55.8C42.5606 55.168 42.4206 54.616 42.1406 54.144C41.8606 53.672 41.4646 53.304 40.9526 53.04C40.4486 52.776 39.8486 52.644 39.1526 52.644H36.8846V58.956ZM57.3649 60L53.6689 51.6H54.9649L58.3609 59.352H57.6169L61.0369 51.6H62.2369L58.5529 60H57.3649ZM76.618 60.096C75.978 60.096 75.382 59.988 74.83 59.772C74.286 59.556 73.814 59.256 73.414 58.872C73.014 58.48 72.702 58.024 72.478 57.504C72.254 56.984 72.142 56.416 72.142 55.8C72.142 55.184 72.254 54.616 72.478 54.096C72.702 53.576 73.014 53.124 73.414 52.74C73.814 52.348 74.286 52.044 74.83 51.828C75.374 51.612 75.97 51.504 76.618 51.504C77.258 51.504 77.846 51.612 78.382 51.828C78.926 52.036 79.398 52.336 79.798 52.728C80.206 53.112 80.518 53.564 80.734 54.084C80.958 54.604 81.07 55.176 81.07 55.8C81.07 56.424 80.958 56.996 80.734 57.516C80.518 58.036 80.206 58.492 79.798 58.884C79.398 59.268 78.926 59.568 78.382 59.784C77.846 59.992 77.258 60.096 76.618 60.096ZM76.618 59.028C77.082 59.028 77.51 58.948 77.902 58.788C78.302 58.628 78.646 58.404 78.934 58.116C79.23 57.82 79.458 57.476 79.618 57.084C79.786 56.692 79.87 56.264 79.87 55.8C79.87 55.336 79.786 54.908 79.618 54.516C79.458 54.124 79.23 53.784 78.934 53.496C78.646 53.2 78.302 52.972 77.902 52.812C77.51 52.652 77.082 52.572 76.618 52.572C76.146 52.572 75.71 52.652 75.31 52.812C74.918 52.972 74.574 53.2 74.278 53.496C73.982 53.784 73.75 54.124 73.582 54.516C73.422 54.908 73.342 55.336 73.342 55.8C73.342 56.264 73.422 56.692 73.582 57.084C73.75 57.476 73.982 57.82 74.278 58.116C74.574 58.404 74.918 58.628 75.31 58.788C75.71 58.948 76.146 59.028 76.618 59.028ZM96.2601 60.096C95.6201 60.096 95.0281 59.992 94.4841 59.784C93.9481 59.568 93.4801 59.268 93.0801 58.884C92.6881 58.492 92.3801 58.036 92.1561 57.516C91.9321 56.996 91.8201 56.424 91.8201 55.8C91.8201 55.176 91.9321 54.604 92.1561 54.084C92.3801 53.564 92.6921 53.112 93.0921 52.728C93.4921 52.336 93.9601 52.036 94.4961 51.828C95.0401 51.612 95.6321 51.504 96.2721 51.504C96.9201 51.504 97.5161 51.616 98.0601 51.84C98.6121 52.056 99.0801 52.38 99.4641 52.812L98.6841 53.568C98.3641 53.232 98.0041 52.984 97.6041 52.824C97.2041 52.656 96.7761 52.572 96.3201 52.572C95.8481 52.572 95.4081 52.652 95.0001 52.812C94.6001 52.972 94.2521 53.196 93.9561 53.484C93.6601 53.772 93.4281 54.116 93.2601 54.516C93.1001 54.908 93.0201 55.336 93.0201 55.8C93.0201 56.264 93.1001 56.696 93.2601 57.096C93.4281 57.488 93.6601 57.828 93.9561 58.116C94.2521 58.404 94.6001 58.628 95.0001 58.788C95.4081 58.948 95.8481 59.028 96.3201 59.028C96.7761 59.028 97.2041 58.948 97.6041 58.788C98.0041 58.62 98.3641 58.364 98.6841 58.02L99.4641 58.776C99.0801 59.208 98.6121 59.536 98.0601 59.76C97.5161 59.984 96.9161 60.096 96.2601 60.096ZM109.305 60L113.109 51.6H114.297L118.113 60H116.853L113.457 52.272H113.937L110.541 60H109.305ZM110.925 57.9L111.249 56.94H115.977L116.325 57.9H110.925ZM132.605 60.096C131.965 60.096 131.373 59.992 130.829 59.784C130.293 59.568 129.825 59.268 129.425 58.884C129.033 58.492 128.725 58.036 128.501 57.516C128.277 56.996 128.165 56.424 128.165 55.8C128.165 55.176 128.277 54.604 128.501 54.084C128.725 53.564 129.037 53.112 129.437 52.728C129.837 52.336 130.305 52.036 130.841 51.828C131.385 51.612 131.977 51.504 132.617 51.504C133.265 51.504 133.861 51.616 134.405 51.84C134.957 52.056 135.425 52.38 135.809 52.812L135.029 53.568C134.709 53.232 134.349 52.984 133.949 52.824C133.549 52.656 133.121 52.572 132.665 52.572C132.193 52.572 131.753 52.652 131.345 52.812C130.945 52.972 130.597 53.196 130.301 53.484C130.005 53.772 129.773 54.116 129.605 54.516C129.445 54.908 129.365 55.336 129.365 55.8C129.365 56.264 129.445 56.696 129.605 57.096C129.773 57.488 130.005 57.828 130.301 58.116C130.597 58.404 130.945 58.628 131.345 58.788C131.753 58.948 132.193 59.028 132.665 59.028C133.121 59.028 133.549 58.948 133.949 58.788C134.349 58.62 134.709 58.364 135.029 58.02L135.809 58.776C135.425 59.208 134.957 59.536 134.405 59.76C133.861 59.984 133.261 60.096 132.605 60.096ZM147.121 60V51.6H148.321V60H147.121ZM159.163 60L162.967 51.6H164.155L167.971 60H166.711L163.315 52.272H163.795L160.399 60H159.163ZM160.783 57.9L161.107 56.94H165.835L166.183 57.9H160.783Z" fill="white"/>
<path d="M3.32 39V11H8.68L20.6 30.76H17.76L29.48 11H34.8L34.88 39H28.8L28.76 20.32H29.88L20.52 36.04H17.6L8.04 20.32H9.4V39H3.32ZM55.1231 39.48C52.9098 39.48 50.8565 39.12 48.9631 38.4C47.0965 37.68 45.4698 36.6667 44.0831 35.36C42.7231 34.0533 41.6565 32.52 40.8831 30.76C40.1365 29 39.7631 27.08 39.7631 25C39.7631 22.92 40.1365 21 40.8831 19.24C41.6565 17.48 42.7365 15.9467 44.1231 14.64C45.5098 13.3333 47.1365 12.32 49.0031 11.6C50.8698 10.88 52.8965 10.52 55.0831 10.52C57.2965 10.52 59.3231 10.88 61.1631 11.6C63.0298 12.32 64.6431 13.3333 66.0031 14.64C67.3898 15.9467 68.4698 17.48 69.2431 19.24C70.0165 20.9733 70.4031 22.8933 70.4031 25C70.4031 27.08 70.0165 29.0133 69.2431 30.8C68.4698 32.56 67.3898 34.0933 66.0031 35.4C64.6431 36.68 63.0298 37.68 61.1631 38.4C59.3231 39.12 57.3098 39.48 55.1231 39.48ZM55.0831 33.96C56.3365 33.96 57.4831 33.7467 58.5231 33.32C59.5898 32.8933 60.5231 32.28 61.3231 31.48C62.1231 30.68 62.7365 29.7333 63.1631 28.64C63.6165 27.5467 63.8431 26.3333 63.8431 25C63.8431 23.6667 63.6165 22.4533 63.1631 21.36C62.7365 20.2667 62.1231 19.32 61.3231 18.52C60.5498 17.72 59.6298 17.1067 58.5631 16.68C57.4965 16.2533 56.3365 16.04 55.0831 16.04C53.8298 16.04 52.6698 16.2533 51.6031 16.68C50.5631 17.1067 49.6431 17.72 48.8431 18.52C48.0431 19.32 47.4165 20.2667 46.9631 21.36C46.5365 22.4533 46.3231 23.6667 46.3231 25C46.3231 26.3067 46.5365 27.52 46.9631 28.64C47.4165 29.7333 48.0298 30.68 48.8031 31.48C49.6031 32.28 50.5365 32.8933 51.6031 33.32C52.6698 33.7467 53.8298 33.96 55.0831 33.96ZM75.2731 39V11H87.3931C89.8998 11 92.0598 11.4133 93.8731 12.24C95.6865 13.04 97.0865 14.2 98.0731 15.72C99.0598 17.24 99.5531 19.0533 99.5531 21.16C99.5531 23.24 99.0598 25.04 98.0731 26.56C97.0865 28.0533 95.6865 29.2 93.8731 30C92.0598 30.8 89.8998 31.2 87.3931 31.2H78.8731L81.7531 28.36V39H75.2731ZM93.0731 39L86.0731 28.84H92.9931L100.073 39H93.0731ZM81.7531 29.08L78.8731 26.04H87.0331C89.0331 26.04 90.5265 25.6133 91.5131 24.76C92.4998 23.88 92.9931 22.68 92.9931 21.16C92.9931 19.6133 92.4998 18.4133 91.5131 17.56C90.5265 16.7067 89.0331 16.28 87.0331 16.28H78.8731L81.7531 13.2V29.08ZM101.007 39L113.487 11H119.887L132.407 39H125.607L115.367 14.28H117.927L107.647 39H101.007ZM107.247 33L108.967 28.08H123.367L125.127 33H107.247ZM141.272 22.28H154.752V27.32H141.272V22.28ZM141.752 33.8H156.992V39H135.312V11H156.472V16.2H141.752V33.8ZM171.348 39.48C169.108 39.48 166.961 39.1867 164.908 38.6C162.855 37.9867 161.201 37.2 159.948 36.24L162.148 31.36C163.348 32.2133 164.761 32.92 166.388 33.48C168.041 34.0133 169.708 34.28 171.388 34.28C172.668 34.28 173.695 34.16 174.468 33.92C175.268 33.6533 175.855 33.2933 176.228 32.84C176.601 32.3867 176.788 31.8667 176.788 31.28C176.788 30.5333 176.495 29.9467 175.908 29.52C175.321 29.0667 174.548 28.7067 173.588 28.44C172.628 28.1467 171.561 27.88 170.388 27.64C169.241 27.3733 168.081 27.0533 166.908 26.68C165.761 26.3067 164.708 25.8267 163.748 25.24C162.788 24.6533 162.001 23.88 161.388 22.92C160.801 21.96 160.508 20.7333 160.508 19.24C160.508 17.64 160.935 16.1867 161.788 14.88C162.668 13.5467 163.975 12.4933 165.708 11.72C167.468 10.92 169.668 10.52 172.308 10.52C174.068 10.52 175.801 10.7333 177.508 11.16C179.215 11.56 180.721 12.1733 182.028 13L180.028 17.92C178.721 17.1733 177.415 16.6267 176.108 16.28C174.801 15.9067 173.521 15.72 172.268 15.72C171.015 15.72 169.988 15.8667 169.188 16.16C168.388 16.4533 167.815 16.84 167.468 17.32C167.121 17.7733 166.948 18.3067 166.948 18.92C166.948 19.64 167.241 20.2267 167.828 20.68C168.415 21.1067 169.188 21.4533 170.148 21.72C171.108 21.9867 172.161 22.2533 173.308 22.52C174.481 22.7867 175.641 23.0933 176.788 23.44C177.961 23.7867 179.028 24.2533 179.988 24.84C180.948 25.4267 181.721 26.2 182.308 27.16C182.921 28.12 183.228 29.3333 183.228 30.8C183.228 32.3733 182.788 33.8133 181.908 35.12C181.028 36.4267 179.708 37.48 177.948 38.28C176.215 39.08 174.015 39.48 171.348 39.48Z" fill="white"/>
</svg>
